<svg
   width="800.02496"
   height="799.97498"
   viewBox="0 0 32.000999 31.998999"
   version="1.1"
   fill-rule="evenodd" 
   clip-rule="evenodd"
   xmlns="http://www.w3.org/2000/svg">
   
  <path
     d="M 31.988,8.167 C 31.988,7.183 31.905,6.203 31.67,5.245 31.248,3.5 30.253,2.167 28.764,1.188 27.998,0.688 27.155,0.381 26.259,0.219 25.571,0.094 24.874,0.037 24.176,0.021 24.124,0.016 24.067,0.005 24.009,0 H 7.978 C 7.775,0.016 7.572,0.026 7.369,0.036 6.374,0.093 5.385,0.197 4.447,0.572 2.666,1.275 1.379,2.504 0.629,4.275 0.369,4.874 0.238,5.509 0.145,6.155 0.067,6.676 0.025,7.202 0.01,7.728 0.01,7.77 0,7.811 0,7.853 V 24.15 c 0.01,0.188 0.021,0.375 0.031,0.563 0.068,1.089 0.208,2.167 0.667,3.167 0.865,1.891 2.318,3.135 4.313,3.734 0.557,0.172 1.141,0.25 1.724,0.302 0.74,0.073 1.479,0.083 2.219,0.083 h 14.708 c 0.698,0 1.396,-0.047 2.094,-0.135 1.099,-0.141 2.13,-0.464 3.063,-1.078 1.12,-0.74 1.964,-1.719 2.505,-2.943 0.25,-0.563 0.391,-1.161 0.495,-1.766 0.151,-0.901 0.182,-1.813 0.182,-2.724 -0.005,-5.063 0,-10.125 -0.005,-15.188 z m -8.563,5.317 v 7.615 c 0,0.557 -0.078,1.104 -0.328,1.609 -0.385,0.786 -1.01,1.281 -1.849,1.521 -0.464,0.135 -0.943,0.208 -1.427,0.229 -1.266,0.063 -2.365,-0.797 -2.589,-2.047 -0.193,-1.031 0.302,-2.167 1.385,-2.698 0.427,-0.208 0.891,-0.333 1.354,-0.427 0.505,-0.109 1.01,-0.208 1.51,-0.323 0.37,-0.083 0.609,-0.307 0.682,-0.688 0.021,-0.083 0.026,-0.172 0.026,-0.255 0,-2.422 0,-4.844 0,-7.26 0,-0.083 -0.016,-0.167 -0.036,-0.245 -0.052,-0.203 -0.198,-0.323 -0.406,-0.313 -0.214,0.01 -0.422,0.047 -0.63,0.089 -1.016,0.198 -2.031,0.401 -3.042,0.609 l -4.932,0.995 c -0.021,0.005 -0.047,0.016 -0.068,0.016 -0.37,0.104 -0.5,0.271 -0.516,0.656 -0.005,0.057 0,0.115 0,0.172 -0.005,3.469 0,6.938 -0.005,10.406 0,0.563 -0.063,1.115 -0.286,1.635 -0.37,0.854 -1.026,1.391 -1.911,1.646 C 9.888,26.561 9.409,26.64 8.919,26.655 7.643,26.702 6.58,25.853 6.362,24.598 6.174,23.515 6.669,22.348 7.898,21.827 8.377,21.629 8.872,21.52 9.377,21.416 c 0.38,-0.078 0.766,-0.156 1.146,-0.234 0.51,-0.109 0.776,-0.432 0.802,-0.953 v -0.198 c 0,-3.948 0,-7.896 0,-11.844 0,-0.167 0.021,-0.333 0.057,-0.495 0.094,-0.38 0.365,-0.599 0.729,-0.688 C 12.45,6.915 12.799,6.853 13.142,6.78 14.121,6.582 15.095,6.384 16.074,6.191 L 19.1,5.576 c 0.896,-0.177 1.786,-0.359 2.682,-0.536 0.292,-0.057 0.589,-0.12 0.885,-0.141 0.411,-0.036 0.698,0.224 0.74,0.641 0.01,0.099 0.016,0.198 0.016,0.297 0,2.547 0,5.094 0,7.641 z"
     id="path1"
     fill="#fff" />
</svg>
