<?xml version="1.0" encoding="UTF-8" standalone="no"?>
<svg
   width="580.00342"
   height="510.68066"
   version="1.1"
   xmlns="http://www.w3.org/2000/svg"
   >
  <path
     d="m 125.7234,34.375088 c 66.496,49.921 138.02,151.140002 164.28,205.460002 26.262,-54.316 97.782,-155.540002 164.28,-205.460002 47.98,-36.021 125.72,-63.892 125.72,24.795 0,17.712 -10.155,148.790002 -16.111,170.070002 -20.703,73.984 -96.144,92.854 -163.25,81.433 117.3,19.964 147.14,86.092 82.697,152.22 -122.39,125.59 -175.91,-31.511 -189.63,-71.766 -2.514,-7.3797 -3.6904,-10.832 -3.7077,-7.8964 -0.0174,-2.9357 -1.1937,0.51669 -3.7077,7.8964 -13.714,40.255 -67.233,197.36 -189.63,71.766 -64.444,-66.128 -34.605,-132.26 82.697,-152.22 -67.108,11.421 -142.55,-7.4491 -163.25,-81.433 C 10.1548,207.95809 -1.5106196e-7,76.880088 -1.5106196e-7,59.170088 -1.5106196e-7,-29.516912 77.742,-1.645912 125.72,34.375088 Z"
     fill="#1185fe"
     style="fill:#ffffff" />
</svg>
