<svg width="1024" height="1024" viewBox="0 0 1025 1024" fill="none" id="svg2" xmlns="http://www.w3.org/2000/svg">
  <path fill-rule="evenodd" clip-rule="evenodd" d="m 512.70041,788.85542 c 153.29042,0 277.55583,-124.26541 277.55583,-277.55583 0,-153.28902 -124.26541,-277.55583 -277.55583,-277.55583 -153.28902,0 -277.55583,124.26681 -277.55583,277.55583 0,153.29042 124.26681,277.55583 277.55583,277.55583 z M 683.60055,511.64979 406.23803,671.69357 V 351.60602 Z" fill="#ffffff" style="stroke-width:1.40082" />
  <path
     fill-rule="evenodd"
     clip-rule="evenodd"
     d="m 512,1024 c 282.76969,0 512,-229.23031 512,-512 C 1024,229.23031 794.76969,0 512,0 229.23031,0 0,229.23031 0,512 0,794.76969 229.23031,1024 512,1024 Z M 822.28181,511.29959 c 0,170.97718 -138.60422,309.58139 -309.5814,309.58139 -170.97718,0 -309.58139,-138.60421 -309.58139,-309.58139 0,-170.97718 138.60421,-309.5814 309.58139,-309.5814 170.97718,0 309.5814,138.60422 309.5814,309.5814 z"
     fill="#ffffff"
     style="stroke-width:1.40082" />
</svg>
